<svg xmlns="http://www.w3.org/2000/svg" viewBox="0 0 25 25"><path d="M17.81,9a6.41,6.41,0,0,0-2.88-2.33l.18-.45a6.57,6.57,0,0,0-2.61-.52,6.73,6.73,0,0,0-1.29.12,6.85,6.85,0,1,0,8.13,6.77,6.78,6.78,0,0,0-1.17-3.83ZM12.5,17.8a5.25,5.25,0,0,1-1-10.4,5,5,0,0,1,3,.28l.18-.43a6,6,0,0,1,2.56,2.09h0l-.41.27a5.4,5.4,0,0,1,.89,2.94A5.22,5.22,0,0,1,12.5,17.8ZM21.19,6.68l-.38.25a10.16,10.16,0,0,0-4.52-3.65l.19-.47a10.19,10.19,0,0,0-4-.81A10.5,10.5,0,1,0,23,12.52,10.38,10.38,0,0,0,21.19,6.68ZM12.5,21.39A8.87,8.87,0,0,1,10.85,3.81a7.45,7.45,0,0,1,1.65-.16,8.73,8.73,0,0,1,3.38.65l.17-.42a9.22,9.22,0,0,1,4.17,3.44h0l-.36.24a8.68,8.68,0,0,1,1.53,5A8.89,8.89,0,0,1,12.5,21.39Zm0-12a3.08,3.08,0,0,0-3.1,3.1,3.1,3.1,0,0,0,6.2,0A3.08,3.08,0,0,0,12.5,9.42Zm0,3.91a.85.85,0,1,1,.8-.85A.82.82,0,0,1,12.5,13.33Z"/></svg>