<svg xmlns="http://www.w3.org/2000/svg" width="25" height="25" fill="currentColor" viewBox="0 0 25 25">
  <path d="M22 13.556c0-.486-.41-.866-.91-.866-.51 0-.92.39-.92.866v1.826c0 .486.41.876.92.876.5 0 .91-.39.91-.876v-1.826zm-4.037-2.407c0-.475-.41-.866-.92-.866-.511 0-.921.39-.921.866v4.233c0 .486.41.876.92.876s.921-.39.921-.876v-4.233zm-4.037-3.283c0-.486-.41-.866-.92-.866s-.921.39-.921.866v9.258c0 .485.41.876.92.876s.921-.39.921-.876V7.866zm-4.048 3.283c0-.475-.41-.866-.92-.866s-.921.39-.921.866v4.233c0 .486.41.876.92.876.511 0 .921-.39.921-.876v-4.233zm-4.036 2.407c0-.486-.41-.866-.921-.866-.51 0-.921.39-.921.866v1.826c0 .486.41.876.92.876.511 0 .922-.39.922-.876v-1.826z"/>
</svg>