<svg width="25" height="25" viewBox="0 0 25 25" fill="currentColor" xmlns="http://www.w3.org/2000/svg">
<path d="M17.8304 5.66197C18.04 5.69192 18.2496 5.57213 18.2496 5.33255C18.2796 4.31434 18.2496 1.85866 16.6025 1.25972C14.4763 0.481087 11.0323 1.55919 8.39698 3.0865C5.70173 4.61382 2.34763 8.1476 1 11.8012C1 11.8012 5.97125 7.48876 11.0623 6.26092C14.9255 5.3026 17.0218 5.51224 17.8304 5.66197Z" />
<path d="M5.31241 11.9509C5.25252 11.7413 5.01294 11.6514 4.80331 11.7413C3.90489 12.1905 1.80858 13.4782 2.10805 15.2152C2.49737 17.4612 5.16268 19.8869 7.79804 21.4143C10.4334 22.9715 15.225 24.1095 19.0283 23.4507C19.0283 23.4507 12.8292 21.2945 9.17561 17.4912C6.45041 14.6162 5.58194 12.6996 5.31241 11.9509Z" />
<path d="M17.0518 19.7372C16.902 19.9169 16.9619 20.1565 17.1117 20.2463C17.9502 20.7854 20.1064 21.9833 21.484 20.8453C23.2508 19.4078 23.9995 15.874 23.9995 12.8194C24.0295 9.73481 22.622 5.03308 20.1363 2.06829C20.1363 2.06829 21.3642 8.50697 19.8967 13.5681C18.8186 17.4013 17.5908 19.1083 17.0518 19.7372Z" />
</svg>