<svg width="17" height="23" viewBox="0 0 17 23" fill="none" xmlns="http://www.w3.org/2000/svg"><path d="M0.077095 12.2067C0.282682 11.6927 0.488268 11.2045 0.693855 10.6391C1.28492 10.819 1.82458 10.9732 2.49274 11.1788C2.49274 10.5363 2.49274 9.97095 2.49274 9.35419C3.18659 9.35419 3.77765 9.35419 4.47151 9.35419C4.47151 9.94525 4.47151 10.5106 4.47151 11.1788C5.11397 10.9732 5.67933 10.819 6.29609 10.6391C6.50168 11.2559 6.68156 11.8212 6.91285 12.438C6.29609 12.6436 5.73073 12.8235 5.08827 13.0547C5.47374 13.5944 5.80782 14.0827 6.1933 14.6223C5.65363 15.0078 5.16536 15.3676 4.6257 15.7531C4.24022 15.2391 3.88045 14.7508 3.49497 14.2112C3.1095 14.7251 2.74972 15.2134 2.33855 15.7274C1.82458 15.3419 1.33631 14.9821 0.796648 14.5966C1.15642 14.0827 1.5162 13.5944 1.90168 13.0291C1.25922 12.8492 0.668156 12.6693 0.077095 12.4894C0.077095 12.3866 0.077095 12.2838 0.077095 12.2067Z" fill="#currentColor"/><path d="M10.6134 11.5899C12.5151 11.5899 14.3397 11.5899 16.2156 11.5899C16.2156 12.181 16.2156 12.7464 16.2156 13.3631C14.3654 13.3631 12.5151 13.3631 10.6134 13.3631C10.6134 12.7978 10.6134 12.2324 10.6134 11.5899Z" fill="#currentColor"/><path d="M0 5.78212L2.13296 0H3.98324L6.1676 5.78212H4.08603L3.0581 2.41564L2.10726 5.78212H0Z" fill="#currentColor"/><path d="M10.1508 5.78212L12.2581 0H14.1341L16.3184 5.78212H14.2369L13.1832 2.41564L12.2324 5.78212H10.1508Z" fill="#currentColor"/><path d="M14.6737 19.3508V19.7106C14.6737 19.9162 14.4939 20.0961 14.2883 20.0961H8.91732C8.66034 20.0961 8.42905 20.2246 8.27486 20.4302L8.12067 20.6358L7.96648 20.4302C7.81229 20.2246 7.58101 20.0961 7.32402 20.0961H2.00447C1.79888 20.0961 1.61899 19.9162 1.61899 19.7106V19.3508H0.077095V20.6358C0.077095 21.2782 0.61676 21.8179 1.25922 21.8179H6.88715C7.32402 21.8179 7.6838 22.1777 7.6838 22.6145V23H8.60894V22.6145C8.60894 22.1777 8.96871 21.8179 9.40559 21.8179H15.0335C15.676 21.8179 16.2156 21.2782 16.2156 20.6358V19.3508H14.6737Z" fill="#currentColor"/></svg>