<?xml version="1.0" encoding="utf-8"?><!-- Generator: Adobe Illustrator 25.2.1, SVG Export Plug-In . SVG Version: 6.00 Build 0)--><svg version="1.1" id="Layer_1" xmlns="http://www.w3.org/2000/svg" xmlns:xlink="http://www.w3.org/1999/xlink" x="0px" y="0px" viewBox="0 0 25 26" style="enable-background:new 0 0 25 26;" xml:space="preserve"><g><g><path d="M21.7,16.9c-0.4,0-0.7,0.1-1,0.2c-1.2-0.1-1.4-0.6-1.5-2c0.2-0.5,0.3-1.1,0.3-1.6c0-0.9-0.2-1.7-0.6-2.4 c-0.3-3,0.9-3.7,3.2-4.9c0.1,0,0.1-0.1,0.2-0.1c0.8-0.4,1.3-1.2,1.3-2.1c0-1.4-1.1-2.4-2.5-2.4c-1.4,0-2.5,1.1-2.5,2.4 c0,0.1,0,0.2,0,0.2c-0.5,2.3-1.1,3.3-4.6,3.7c-0.1,0-0.2,0-0.3,0c-3.2,0-5.8,2.5-5.8,5.6c0,0.1,0,0.2,0,0.4 c-0.8,2.5-1.8,3-3.8,3.6c-0.1,0-0.2,0-0.3,0c-1.5,0-2.8,1.2-2.8,2.7c0,1.5,1.2,2.7,2.8,2.7s2.8-1.2,2.8-2.7c0.1-1.7,1.3-2.6,3-2.6 c1,1,2.5,1.6,4,1.6c1.1,0,2.2-0.3,3-0.8c1.5-0.2,2.1,0.1,2.8,1.2c0.2,1,1.1,1.8,2.2,1.8c1.3,0,2.3-1,2.3-2.2 C24,17.9,23,16.9,21.7,16.9z M13.8,16.7c-1.9,0-3.4-1.5-3.4-3.3c0-1.8,1.5-3.3,3.4-3.3c1.9,0,3.4,1.5,3.4,3.3 C17.2,15.2,15.6,16.7,13.8,16.7z M11.7,6.9c0.6,0,1.1-0.5,1.1-1.1s-0.5-1.1-1.1-1.1c-0.6,0-1.1,0.5-1.1,1.1S11.1,6.9,11.7,6.9z M3.9,10.8c1.2,0,2.1-0.9,2.1-2.1s-1-2.1-2.1-2.1c-1.2,0-2.1,0.9-2.1,2.1S2.7,10.8,3.9,10.8z M12,21.8c-0.8,0-1.4,0.6-1.4,1.3 c0,0.7,0.6,1.3,1.4,1.3s1.4-0.6,1.4-1.3C13.4,22.4,12.8,21.8,12,21.8z M21,12.3c0,0.8,0.7,1.5,1.5,1.5c0.8,0,1.5-0.7,1.5-1.5 c0-0.8-0.7-1.5-1.5-1.5C21.6,10.8,21,11.5,21,12.3z"/></g></g></svg>