<svg width="25" height="25" viewBox="0 0 25 25" fill="currentColor" xmlns="http://www.w3.org/2000/svg"><g clip-path="url(#clip0)"><path d="M21.1037 7.92483C21.6355 9.08308 21.7036 10.3995 21.294 11.6059C22.3629 11.7398 23.3403 12.2739 24.0273 13.0996C24.7143 13.9254 25.0592 14.9806 24.9917 16.0504C24.9242 17.1203 24.4495 18.1243 23.6641 18.8581C22.8788 19.5918 21.8419 20.0002 20.7645 20H16.2442C18.4891 18.704 20 16.2785 20 13.5C20 9.67495 17.1366 6.51869 13.4363 6.05788C13.825 5.75632 14.2593 5.51075 14.7273 5.33208C15.9222 4.87594 17.2469 4.89018 18.4316 5.3719C19.6163 5.85362 20.5718 6.76658 21.1037 7.92483Z" fill="currentColor"/><path d="M8.75583 20C6.51086 18.704 5 16.2785 5 13.5C5 12.2399 5.31075 11.0524 5.85979 10.01C5.33072 9.92477 4.79022 9.92368 4.25864 10.0078C3.54698 10.1205 2.86778 10.3833 2.26661 10.7787C1.66545 11.174 1.15623 11.6928 0.773134 12.3001C0.390041 12.9074 0.141937 13.5892 0.045474 14.2997C-0.0509891 15.0103 0.00642066 15.7332 0.21385 16.4198C0.42128 17.1065 0.773929 17.7411 1.24813 18.2809C1.72233 18.8208 2.30711 19.2535 2.96323 19.55C3.61934 19.8465 4.3316 20 5.05221 20H8.75583Z" fill="currentColor"/><path fill-rule="evenodd" clip-rule="evenodd" d="M12.5 8.5C9.73858 8.5 7.5 10.7386 7.5 13.5C7.5 16.2614 9.73858 18.5 12.5 18.5C15.2614 18.5 17.5 16.2614 17.5 13.5C17.5 10.7386 15.2614 8.5 12.5 8.5ZM6.5 13.5C6.5 10.1863 9.18629 7.5 12.5 7.5C15.8137 7.5 18.5 10.1863 18.5 13.5C18.5 16.8137 15.8137 19.5 12.5 19.5C9.18629 19.5 6.5 16.8137 6.5 13.5ZM12.5 10.5C10.8431 10.5 9.5 11.8431 9.5 13.5C9.5 15.1569 10.8431 16.5 12.5 16.5C14.1569 16.5 15.5 15.1569 15.5 13.5C15.5 11.8431 14.1569 10.5 12.5 10.5ZM8.5 13.5C8.5 11.2909 10.2909 9.5 12.5 9.5C14.7091 9.5 16.5 11.2909 16.5 13.5C16.5 15.7091 14.7091 17.5 12.5 17.5C10.2909 17.5 8.5 15.7091 8.5 13.5ZM12.5 12.5C11.9477 12.5 11.5 12.9477 11.5 13.5C11.5 14.0523 11.9477 14.5 12.5 14.5C13.0523 14.5 13.5 14.0523 13.5 13.5C13.5 12.9477 13.0523 12.5 12.5 12.5ZM10.5 13.5C10.5 12.3954 11.3954 11.5 12.5 11.5C13.6046 11.5 14.5 12.3954 14.5 13.5C14.5 14.6046 13.6046 15.5 12.5 15.5C11.3954 15.5 10.5 14.6046 10.5 13.5Z" fill="currentColor"/></g><defs><clipPath id="clip0"><rect width="25" height="25" fill="currentColor"/></clipPath></defs></svg>